<?xml version="1.0" encoding="utf-8"?>
<!-- Generator: Adobe Illustrator 20.0.0, SVG Export Plug-In . SVG Version: 6.00 Build 0)  -->
<!DOCTYPE svg PUBLIC "-//W3C//DTD SVG 1.1//EN" "http://www.w3.org/Graphics/SVG/1.1/DTD/svg11.dtd">
<svg version="1.1" id="Calque_1" xmlns="http://www.w3.org/2000/svg" xmlns:xlink="http://www.w3.org/1999/xlink" x="0px" y="0px"
	 viewBox="0 0 595.3 595.3" enable-background="new 0 0 595.3 595.3" xml:space="preserve">
<path d="M561.7,173.6c0-17.2-8.9-32.4-22.3-41.2c13.4-8.8,22.3-24,22.3-41.2c0-27.2-22.1-49.3-49.3-49.3H124.2
	c-50,0-90.6,40.6-90.6,90.6c0,31.4,16.1,59.1,40.4,75.4c-22.9,4.2-40.4,24.3-40.4,48.5c0,17.2,8.9,32.4,22.3,41.2
	c-13.4,8.8-22.3,24-22.3,41.2c0,24.2,17.5,44.4,40.6,48.5c-24.4,16.2-40.6,44-40.6,75.5c0,50,40.6,90.6,90.6,90.6l388.1-0.1
	c27.2,0,49.3-22.1,49.3-49.3c0-17.2-8.9-32.4-22.3-41.2c13.4-8.8,22.3-24,22.3-41.2c0-24.1-17.5-44.3-40.4-48.5
	c24.3-16.3,40.4-44,40.4-75.4c0-31.5-16.1-59.2-40.6-75.5C544.1,218,561.7,197.8,561.7,173.6z M545.6,421.5
	c0,17.6-13.6,32.2-30.8,33.4l-374-0.1c-4.7,0-8.5-3.8-8.5-8.5c0-4.7,3.8-8.5,8.5-8.5v-16c-13.5,0-24.5,11-24.5,24.5
	s11,24.5,24.5,24.5l375.1,0.1c16.9,1.5,29.8,15.7,29.8,33c0,18.3-14.9,33.3-33.3,33.3l-388.1,0.1c-41.1,0-74.6-33.4-74.6-74.6
	s33.4-74.6,74.6-74.6h388.1C530.7,388.2,545.6,403.2,545.6,421.5z M545.6,297.6c0,41.1-33.4,74.6-74.6,74.6l-388.1-0.1
	c-18.3,0-33.3-14.9-33.3-33.3c0-17.3,13.3-31.6,30.2-33.1h374.6c13.5,0,24.5-11,24.5-24.5c0-13.5-11-24.5-24.5-24.5v16
	c4.7,0,8.5,3.8,8.5,8.5c0,4.7-3.8,8.5-8.5,8.5l-374-0.1c-17.3-1.2-30.9-15.6-30.9-33.2c0-18.3,14.9-33.3,33.3-33.3h388.1
	C512.2,223.1,545.6,256.5,545.6,297.6z M512.3,206.9L124.2,207c-41.1,0-74.6-33.4-74.6-74.6s33.4-74.6,74.6-74.6h388.1
	c18.3,0,33.3,14.9,33.3,33.3c0,17.6-13.7,32-30.9,33.2l-374,0.1c-4.7,0-8.5-3.8-8.5-8.5c0-4.7,3.8-8.5,8.5-8.5v-16
	c-13.5,0-24.5,11-24.5,24.5s11,24.5,24.5,24.5h374.6c16.9,1.5,30.2,15.8,30.2,33.1C545.6,192,530.7,206.9,512.3,206.9z"/>
</svg>
